<mxfile host="app.diagrams.net" agent="Mozilla/5.0 (Windows NT 10.0; Win64; x64) AppleWebKit/537.36 (KHTML, like Gecko) Chrome/133.0.0.0 Safari/537.36 Edg/133.0.0.0" version="26.0.11">
  <diagram name="第 1 页" id="6OsEueN8ciZ8ijTwi9Zg">
    <mxGraphModel dx="2104" dy="858" grid="0" gridSize="10" guides="1" tooltips="1" connect="1" arrows="1" fold="1" page="1" pageScale="1" pageWidth="827" pageHeight="1169" math="0" shadow="0">
      <root>
        <mxCell id="0" />
        <mxCell id="1" parent="0" />
        <mxCell id="lzfWC1ChqtZ4avR7ghm4-2" value="" style="rounded=1;arcSize=12;whiteSpace=wrap;html=1;fillColor=light-dark(#deebf7, #1d293b);strokeColor=light-dark(#2a77bc, #5c79a3);" vertex="1" parent="1">
          <mxGeometry x="110" y="30" width="230" height="210" as="geometry" />
        </mxCell>
        <mxCell id="lzfWC1ChqtZ4avR7ghm4-3" value="" style="group" vertex="1" connectable="0" parent="1">
          <mxGeometry x="-130" y="110" width="140" height="100" as="geometry" />
        </mxCell>
        <mxCell id="lzfWC1ChqtZ4avR7ghm4-4" value="" style="group" vertex="1" connectable="0" parent="lzfWC1ChqtZ4avR7ghm4-3">
          <mxGeometry x="-50" width="190" height="88" as="geometry" />
        </mxCell>
        <mxCell id="lzfWC1ChqtZ4avR7ghm4-5" value="" style="shape=actor;whiteSpace=wrap;html=1;" vertex="1" parent="lzfWC1ChqtZ4avR7ghm4-4">
          <mxGeometry x="50" width="40" height="60" as="geometry" />
        </mxCell>
        <mxCell id="lzfWC1ChqtZ4avR7ghm4-6" value="&lt;font face=&quot;Times New Roman&quot; style=&quot;font-size: 14px;&quot;&gt;I&#39;m sleepy&lt;/font&gt;" style="whiteSpace=wrap;html=1;shape=mxgraph.basic.roundRectCallout;dx=30;dy=15;size=5;boundedLbl=1;" vertex="1" parent="lzfWC1ChqtZ4avR7ghm4-4">
          <mxGeometry x="100" width="80" height="60" as="geometry" />
        </mxCell>
        <mxCell id="lzfWC1ChqtZ4avR7ghm4-7" value="&lt;font face=&quot;Times New Roman&quot; style=&quot;font-size: 14px;&quot;&gt;Human Dialogue&lt;/font&gt;" style="text;html=1;align=center;verticalAlign=middle;resizable=0;points=[];autosize=1;strokeColor=none;fillColor=none;" vertex="1" parent="lzfWC1ChqtZ4avR7ghm4-3">
          <mxGeometry y="70" width="120" height="30" as="geometry" />
        </mxCell>
        <mxCell id="lzfWC1ChqtZ4avR7ghm4-8" style="edgeStyle=orthogonalEdgeStyle;rounded=1;orthogonalLoop=1;jettySize=auto;html=1;fillColor=#1ba1e2;strokeColor=light-dark(#164673, #51afe7);curved=0;textShadow=1;" edge="1" parent="1">
          <mxGeometry relative="1" as="geometry">
            <mxPoint x="350" y="130" as="sourcePoint" />
            <mxPoint x="400" y="130" as="targetPoint" />
          </mxGeometry>
        </mxCell>
        <mxCell id="lzfWC1ChqtZ4avR7ghm4-20" value="" style="group" vertex="1" connectable="0" parent="1">
          <mxGeometry x="842" y="30" width="135" height="130" as="geometry" />
        </mxCell>
        <mxCell id="lzfWC1ChqtZ4avR7ghm4-21" value="" style="group" vertex="1" connectable="0" parent="lzfWC1ChqtZ4avR7ghm4-20">
          <mxGeometry y="60" width="130" height="60" as="geometry" />
        </mxCell>
        <mxCell id="lzfWC1ChqtZ4avR7ghm4-22" value="&lt;font style=&quot;font-size: 10px;&quot; face=&quot;Times New Roman&quot;&gt;Human wants to have a coffee&lt;/font&gt;" style="whiteSpace=wrap;html=1;shape=mxgraph.basic.cloud_callout;strokeColor=light-dark(#4468ab, #319eff);fillColor=light-dark(#bdd7ee, #1e4a76);" vertex="1" parent="lzfWC1ChqtZ4avR7ghm4-21">
          <mxGeometry x="5" width="120" height="39.99999999999999" as="geometry" />
        </mxCell>
        <mxCell id="lzfWC1ChqtZ4avR7ghm4-23" value="&lt;b&gt;&lt;font face=&quot;Times New Roman&quot;&gt;Intention Reasoning&lt;/font&gt;&lt;/b&gt;" style="text;html=1;align=center;verticalAlign=middle;resizable=0;points=[];autosize=1;strokeColor=none;fillColor=none;" vertex="1" parent="lzfWC1ChqtZ4avR7ghm4-20">
          <mxGeometry y="100" width="130" height="30" as="geometry" />
        </mxCell>
        <mxCell id="lzfWC1ChqtZ4avR7ghm4-38" value="" style="shape=flexArrow;endArrow=classic;startArrow=classic;html=1;rounded=0;fillColor=#eeeeee;strokeColor=#36393d;" edge="1" parent="1">
          <mxGeometry width="100" height="100" relative="1" as="geometry">
            <mxPoint x="110" y="440" as="sourcePoint" />
            <mxPoint x="110" y="90" as="targetPoint" />
            <Array as="points">
              <mxPoint x="20" y="440" />
              <mxPoint x="20" y="250" />
              <mxPoint x="20" y="90" />
            </Array>
          </mxGeometry>
        </mxCell>
        <mxCell id="lzfWC1ChqtZ4avR7ghm4-39" value="&lt;span style=&quot;color: rgb(0, 0, 0); font-style: normal; font-variant-ligatures: normal; font-variant-caps: normal; font-weight: 400; letter-spacing: normal; orphans: 2; text-align: center; text-indent: 0px; text-transform: none; widows: 2; word-spacing: 0px; -webkit-text-stroke-width: 0px; white-space: nowrap; background-color: rgb(251, 251, 251); text-decoration-thickness: initial; text-decoration-style: initial; text-decoration-color: initial; float: none; display: inline !important;&quot;&gt;&lt;font face=&quot;Times New Roman&quot; style=&quot;font-size: 14px;&quot;&gt;In parallel&lt;/font&gt;&lt;/span&gt;" style="text;whiteSpace=wrap;html=1;" vertex="1" parent="1">
          <mxGeometry x="160" y="370" width="120" height="40" as="geometry" />
        </mxCell>
        <mxCell id="lzfWC1ChqtZ4avR7ghm4-53" value="" style="group" vertex="1" connectable="0" parent="1">
          <mxGeometry x="827" y="230" width="150" height="30" as="geometry" />
        </mxCell>
        <mxCell id="lzfWC1ChqtZ4avR7ghm4-1" value="" style="rounded=1;arcSize=5;whiteSpace=wrap;html=1;fillColor=#d5e8d4;strokeColor=light-dark(#517f31, #446e2c);" vertex="1" parent="lzfWC1ChqtZ4avR7ghm4-53">
          <mxGeometry width="150" height="30" as="geometry" />
        </mxCell>
        <mxCell id="lzfWC1ChqtZ4avR7ghm4-25" value="&lt;font style=&quot;font-size: 15px;&quot; face=&quot;Times New Roman&quot;&gt;Low-Level Mind&lt;/font&gt;" style="text;html=1;align=center;verticalAlign=middle;resizable=0;points=[];autosize=1;strokeColor=none;fillColor=none;fontColor=light-dark(#548235, #69c195);fontStyle=1" vertex="1" parent="lzfWC1ChqtZ4avR7ghm4-53">
          <mxGeometry x="15" width="130" height="30" as="geometry" />
        </mxCell>
        <mxCell id="lzfWC1ChqtZ4avR7ghm4-54" value="" style="group" vertex="1" connectable="0" parent="1">
          <mxGeometry x="400" y="70" width="149" height="165" as="geometry" />
        </mxCell>
        <mxCell id="lzfWC1ChqtZ4avR7ghm4-17" value="" style="group" vertex="1" connectable="0" parent="lzfWC1ChqtZ4avR7ghm4-54">
          <mxGeometry width="149" height="165" as="geometry" />
        </mxCell>
        <mxCell id="lzfWC1ChqtZ4avR7ghm4-18" value="" style="group;fontStyle=0;strokeWidth=1;" vertex="1" connectable="0" parent="lzfWC1ChqtZ4avR7ghm4-17">
          <mxGeometry width="149" height="165" as="geometry" />
        </mxCell>
        <mxCell id="lzfWC1ChqtZ4avR7ghm4-19" value="&lt;font style=&quot;font-size: 16px;&quot; face=&quot;Times New Roman&quot;&gt;&lt;b style=&quot;&quot;&gt;LLM&lt;/b&gt;&lt;/font&gt;&lt;div&gt;&lt;font style=&quot;font-size: 16px;&quot; face=&quot;Times New Roman&quot;&gt;&lt;b style=&quot;&quot;&gt;GPT-4o&lt;/b&gt;&lt;/font&gt;&lt;/div&gt;" style="text;html=1;align=center;verticalAlign=middle;resizable=0;points=[];autosize=1;strokeColor=none;fillColor=none;" vertex="1" parent="lzfWC1ChqtZ4avR7ghm4-18">
          <mxGeometry x="9" y="90" width="80" height="50" as="geometry" />
        </mxCell>
        <mxCell id="lzfWC1ChqtZ4avR7ghm4-87" style="edgeStyle=orthogonalEdgeStyle;rounded=1;orthogonalLoop=1;jettySize=auto;html=1;fillColor=#1ba1e2;strokeColor=light-dark(#164673, #51afe7);curved=0;textShadow=1;" edge="1" parent="lzfWC1ChqtZ4avR7ghm4-18">
          <mxGeometry relative="1" as="geometry">
            <mxPoint x="99" y="60" as="sourcePoint" />
            <mxPoint x="149" y="60" as="targetPoint" />
          </mxGeometry>
        </mxCell>
        <mxCell id="lzfWC1ChqtZ4avR7ghm4-42" value="" style="shape=image;html=1;verticalAlign=top;verticalLabelPosition=bottom;labelBackgroundColor=#ffffff;imageAspect=0;aspect=fixed;image=https://cdn0.iconfinder.com/data/icons/phosphor-light-vol-1/256/brain-light-128.png;imageBackground=none;imageBorder=none;" vertex="1" parent="lzfWC1ChqtZ4avR7ghm4-54">
          <mxGeometry x="8" y="17.5" width="83" height="83" as="geometry" />
        </mxCell>
        <mxCell id="lzfWC1ChqtZ4avR7ghm4-55" value="" style="group" vertex="1" connectable="0" parent="1">
          <mxGeometry x="860" y="360" width="155" height="130" as="geometry" />
        </mxCell>
        <mxCell id="lzfWC1ChqtZ4avR7ghm4-40" value="" style="group" vertex="1" connectable="0" parent="lzfWC1ChqtZ4avR7ghm4-55">
          <mxGeometry width="135" height="130" as="geometry" />
        </mxCell>
        <mxCell id="lzfWC1ChqtZ4avR7ghm4-41" value="&lt;b&gt;&lt;font face=&quot;Times New Roman&quot;&gt;Completion Assessment&lt;/font&gt;&lt;/b&gt;" style="text;html=1;align=center;verticalAlign=middle;resizable=0;points=[];autosize=1;strokeColor=none;fillColor=none;" vertex="1" parent="lzfWC1ChqtZ4avR7ghm4-40">
          <mxGeometry x="-5" y="100" width="140" height="30" as="geometry" />
        </mxCell>
        <mxCell id="lzfWC1ChqtZ4avR7ghm4-44" value="&lt;div style=&quot;text-align: center; line-height: 100%;&quot;&gt;&lt;span style=&quot;background-color: transparent; color: light-dark(rgb(0, 0, 0), rgb(255, 255, 255)); font-family: &amp;quot;Times New Roman&amp;quot;;&quot;&gt;&amp;nbsp; &amp;nbsp; &amp;nbsp;&lt;/span&gt;&lt;/div&gt;&lt;div style=&quot;text-align: center; line-height: 100%;&quot;&gt;&lt;span style=&quot;background-color: transparent; color: light-dark(rgb(0, 0, 0), rgb(255, 255, 255)); font-family: &amp;quot;Times New Roman&amp;quot;;&quot;&gt;&amp;nbsp; &amp;nbsp;&lt;/span&gt;&lt;span style=&quot;font-family: &amp;quot;Times New Roman&amp;quot;; background-color: transparent; color: light-dark(rgb(0, 0, 0), rgb(255, 255, 255));&quot;&gt;Human wants to have coffee&lt;/span&gt;&lt;/div&gt;&lt;ul style=&quot;line-height: 100%;&quot;&gt;&lt;li&gt;&lt;font face=&quot;Times New Roman&quot;&gt;Yes&lt;/font&gt;&lt;/li&gt;&lt;li&gt;&lt;font face=&quot;Times New Roman&quot;&gt;No&lt;/font&gt;&lt;/li&gt;&lt;/ul&gt;" style="shape=note;whiteSpace=wrap;html=1;backgroundOutline=1;darkOpacity=0.05;align=left;size=9;fillColor=light-dark(#bdd7ee, #ededed);" vertex="1" parent="lzfWC1ChqtZ4avR7ghm4-55">
          <mxGeometry y="30" width="155" height="70" as="geometry" />
        </mxCell>
        <mxCell id="lzfWC1ChqtZ4avR7ghm4-86" value="" style="shape=cross;whiteSpace=wrap;html=1;fillColor=light-dark(#2a77bc, #ededed);strokeColor=light-dark(#2a77bc, #ededed);aspect=fixed;" vertex="1" parent="1">
          <mxGeometry x="215" y="80" width="20" height="20" as="geometry" />
        </mxCell>
        <mxCell id="lzfWC1ChqtZ4avR7ghm4-102" value="" style="group" vertex="1" connectable="0" parent="1">
          <mxGeometry x="140" y="40" width="180" height="240" as="geometry" />
        </mxCell>
        <mxCell id="lzfWC1ChqtZ4avR7ghm4-64" value="" style="group" vertex="1" connectable="0" parent="lzfWC1ChqtZ4avR7ghm4-102">
          <mxGeometry width="180" height="30" as="geometry" />
        </mxCell>
        <mxCell id="lzfWC1ChqtZ4avR7ghm4-63" value="" style="verticalLabelPosition=bottom;verticalAlign=top;html=1;shape=mxgraph.basic.rect;fillColor2=none;strokeWidth=1;size=20;indent=5;" vertex="1" parent="lzfWC1ChqtZ4avR7ghm4-64">
          <mxGeometry width="180" height="30" as="geometry" />
        </mxCell>
        <mxCell id="lzfWC1ChqtZ4avR7ghm4-60" value="Human Dialogue" style="text;html=1;align=center;verticalAlign=middle;whiteSpace=wrap;rounded=0;" vertex="1" parent="lzfWC1ChqtZ4avR7ghm4-64">
          <mxGeometry y="7.5" width="180" height="15" as="geometry" />
        </mxCell>
        <mxCell id="lzfWC1ChqtZ4avR7ghm4-65" value="" style="group" vertex="1" connectable="0" parent="lzfWC1ChqtZ4avR7ghm4-102">
          <mxGeometry y="70" width="180" height="30" as="geometry" />
        </mxCell>
        <mxCell id="lzfWC1ChqtZ4avR7ghm4-66" value="" style="verticalLabelPosition=bottom;verticalAlign=top;html=1;shape=mxgraph.basic.rect;fillColor2=none;strokeWidth=1;size=20;indent=5;" vertex="1" parent="lzfWC1ChqtZ4avR7ghm4-65">
          <mxGeometry width="180" height="30" as="geometry" />
        </mxCell>
        <mxCell id="lzfWC1ChqtZ4avR7ghm4-67" value="History Dialogue" style="text;html=1;align=center;verticalAlign=middle;whiteSpace=wrap;rounded=0;" vertex="1" parent="lzfWC1ChqtZ4avR7ghm4-65">
          <mxGeometry y="7.5" width="180" height="15" as="geometry" />
        </mxCell>
        <mxCell id="lzfWC1ChqtZ4avR7ghm4-68" value="" style="group" vertex="1" connectable="0" parent="lzfWC1ChqtZ4avR7ghm4-102">
          <mxGeometry y="110" width="180" height="30" as="geometry" />
        </mxCell>
        <mxCell id="lzfWC1ChqtZ4avR7ghm4-69" value="" style="verticalLabelPosition=bottom;verticalAlign=top;html=1;shape=mxgraph.basic.rect;fillColor2=none;strokeWidth=1;size=20;indent=5;" vertex="1" parent="lzfWC1ChqtZ4avR7ghm4-68">
          <mxGeometry width="180" height="30" as="geometry" />
        </mxCell>
        <mxCell id="lzfWC1ChqtZ4avR7ghm4-70" value="Current States" style="text;html=1;align=center;verticalAlign=middle;whiteSpace=wrap;rounded=0;" vertex="1" parent="lzfWC1ChqtZ4avR7ghm4-68">
          <mxGeometry y="7.5" width="180" height="15" as="geometry" />
        </mxCell>
        <mxCell id="lzfWC1ChqtZ4avR7ghm4-71" value="" style="group" vertex="1" connectable="0" parent="lzfWC1ChqtZ4avR7ghm4-102">
          <mxGeometry y="150" width="180" height="30" as="geometry" />
        </mxCell>
        <mxCell id="lzfWC1ChqtZ4avR7ghm4-72" value="" style="verticalLabelPosition=bottom;verticalAlign=top;html=1;shape=mxgraph.basic.rect;fillColor2=none;strokeWidth=1;size=20;indent=5;" vertex="1" parent="lzfWC1ChqtZ4avR7ghm4-71">
          <mxGeometry width="180" height="30" as="geometry" />
        </mxCell>
        <mxCell id="lzfWC1ChqtZ4avR7ghm4-73" value="Enviroment States" style="text;html=1;align=center;verticalAlign=middle;whiteSpace=wrap;rounded=0;" vertex="1" parent="lzfWC1ChqtZ4avR7ghm4-71">
          <mxGeometry y="7.5" width="180" height="15" as="geometry" />
        </mxCell>
        <mxCell id="lzfWC1ChqtZ4avR7ghm4-74" value="&lt;font face=&quot;Times New Roman&quot; style=&quot;font-size: 16px;&quot;&gt;&lt;b style=&quot;&quot;&gt;Reasoning Prompt&lt;/b&gt;&lt;/font&gt;" style="text;html=1;align=center;verticalAlign=middle;resizable=0;points=[];autosize=1;strokeColor=none;fillColor=none;" vertex="1" parent="lzfWC1ChqtZ4avR7ghm4-102">
          <mxGeometry x="10" y="210" width="150" height="30" as="geometry" />
        </mxCell>
        <mxCell id="lzfWC1ChqtZ4avR7ghm4-103" value="" style="group" vertex="1" connectable="0" parent="1">
          <mxGeometry x="560" y="110" width="180" height="240" as="geometry" />
        </mxCell>
        <mxCell id="lzfWC1ChqtZ4avR7ghm4-104" value="" style="group" vertex="1" connectable="0" parent="lzfWC1ChqtZ4avR7ghm4-103">
          <mxGeometry width="180" height="30" as="geometry" />
        </mxCell>
        <mxCell id="lzfWC1ChqtZ4avR7ghm4-105" value="" style="verticalLabelPosition=bottom;verticalAlign=top;html=1;shape=mxgraph.basic.rect;fillColor2=none;strokeWidth=1;size=20;indent=5;" vertex="1" parent="lzfWC1ChqtZ4avR7ghm4-104">
          <mxGeometry width="180" height="30" as="geometry" />
        </mxCell>
        <mxCell id="lzfWC1ChqtZ4avR7ghm4-106" value="Human Dialogue" style="text;html=1;align=center;verticalAlign=middle;whiteSpace=wrap;rounded=0;" vertex="1" parent="lzfWC1ChqtZ4avR7ghm4-104">
          <mxGeometry y="7.5" width="180" height="15" as="geometry" />
        </mxCell>
        <mxCell id="lzfWC1ChqtZ4avR7ghm4-107" value="" style="group" vertex="1" connectable="0" parent="lzfWC1ChqtZ4avR7ghm4-103">
          <mxGeometry y="70" width="180" height="30" as="geometry" />
        </mxCell>
        <mxCell id="lzfWC1ChqtZ4avR7ghm4-108" value="" style="verticalLabelPosition=bottom;verticalAlign=top;html=1;shape=mxgraph.basic.rect;fillColor2=none;strokeWidth=1;size=20;indent=5;" vertex="1" parent="lzfWC1ChqtZ4avR7ghm4-107">
          <mxGeometry width="180" height="30" as="geometry" />
        </mxCell>
        <mxCell id="lzfWC1ChqtZ4avR7ghm4-109" value="History Dialogue" style="text;html=1;align=center;verticalAlign=middle;whiteSpace=wrap;rounded=0;" vertex="1" parent="lzfWC1ChqtZ4avR7ghm4-107">
          <mxGeometry y="7.5" width="180" height="15" as="geometry" />
        </mxCell>
        <mxCell id="lzfWC1ChqtZ4avR7ghm4-110" value="" style="group" vertex="1" connectable="0" parent="lzfWC1ChqtZ4avR7ghm4-103">
          <mxGeometry y="110" width="180" height="30" as="geometry" />
        </mxCell>
        <mxCell id="lzfWC1ChqtZ4avR7ghm4-111" value="" style="verticalLabelPosition=bottom;verticalAlign=top;html=1;shape=mxgraph.basic.rect;fillColor2=none;strokeWidth=1;size=20;indent=5;" vertex="1" parent="lzfWC1ChqtZ4avR7ghm4-110">
          <mxGeometry width="180" height="30" as="geometry" />
        </mxCell>
        <mxCell id="lzfWC1ChqtZ4avR7ghm4-112" value="Current States" style="text;html=1;align=center;verticalAlign=middle;whiteSpace=wrap;rounded=0;" vertex="1" parent="lzfWC1ChqtZ4avR7ghm4-110">
          <mxGeometry y="7.5" width="180" height="15" as="geometry" />
        </mxCell>
        <mxCell id="lzfWC1ChqtZ4avR7ghm4-113" value="" style="group" vertex="1" connectable="0" parent="lzfWC1ChqtZ4avR7ghm4-103">
          <mxGeometry y="150" width="180" height="30" as="geometry" />
        </mxCell>
        <mxCell id="lzfWC1ChqtZ4avR7ghm4-114" value="" style="verticalLabelPosition=bottom;verticalAlign=top;html=1;shape=mxgraph.basic.rect;fillColor2=none;strokeWidth=1;size=20;indent=5;" vertex="1" parent="lzfWC1ChqtZ4avR7ghm4-113">
          <mxGeometry width="180" height="30" as="geometry" />
        </mxCell>
        <mxCell id="lzfWC1ChqtZ4avR7ghm4-115" value="Enviroment States" style="text;html=1;align=center;verticalAlign=middle;whiteSpace=wrap;rounded=0;" vertex="1" parent="lzfWC1ChqtZ4avR7ghm4-113">
          <mxGeometry y="7.5" width="180" height="15" as="geometry" />
        </mxCell>
        <mxCell id="lzfWC1ChqtZ4avR7ghm4-116" value="&lt;font face=&quot;Times New Roman&quot; style=&quot;font-size: 16px;&quot;&gt;&lt;b style=&quot;&quot;&gt;Reasoning Prompt&lt;/b&gt;&lt;/font&gt;" style="text;html=1;align=center;verticalAlign=middle;resizable=0;points=[];autosize=1;strokeColor=none;fillColor=none;" vertex="1" parent="lzfWC1ChqtZ4avR7ghm4-103">
          <mxGeometry x="10" y="210" width="150" height="30" as="geometry" />
        </mxCell>
      </root>
    </mxGraphModel>
  </diagram>
</mxfile>
